<svg xmlns="http://www.w3.org/2000/svg" width="34" height="29" viewBox="0 0 34 29" fill="none"><path d="M8.43584 24.9126C8.22526 25.1267 7.88392 25.1267 7.67323 24.9127C7.46266 24.6988 7.46266 24.3521 7.67323 24.1381C7.88381 23.9242 8.22515 23.9242 8.43584 24.1381C8.64641 24.3521 8.64641 24.6988 8.43584 24.9126V24.9126Z" fill="#FFBF00"></path><path d="M17.5308 28.1631C17.3202 28.377 16.9788 28.377 16.7683 28.1631C16.5577 27.949 16.5577 27.6024 16.7683 27.3886C16.979 27.1746 17.3201 27.1744 17.5306 27.3885C17.7412 27.6024 17.7412 27.949 17.5306 28.1631H17.5308Z" fill="#FFBF00"></path><path d="M26.5897 24.8333C26.3792 25.0472 26.0377 25.0471 25.827 24.8332C25.6166 24.6195 25.6165 24.2725 25.827 24.0587C26.0377 23.8446 26.3792 23.8448 26.5896 24.0586C26.8002 24.2725 26.8003 24.6195 26.5897 24.8333V24.8333Z" fill="#FFBF00"></path><path d="M8.29158 23.4532C8.48982 23.2518 8.8108 23.2518 9.00893 23.4532C9.20706 23.6544 9.20718 23.9806 9.00905 24.182C8.81092 24.3833 8.48982 24.3833 8.29158 24.182C8.09345 23.9808 8.09345 23.6544 8.29158 23.4532V23.4532Z" fill="#FFBF00"></path><path d="M16.7871 26.4906C16.9853 26.2892 17.3062 26.2891 17.5044 26.4904C17.7026 26.6917 17.7026 27.0181 17.5045 27.2193C17.3063 27.4206 16.9852 27.4207 16.787 27.2195C16.5889 27.0182 16.589 26.692 16.7871 26.4907V26.4906Z" fill="#FFBF00"></path><path d="M25.249 23.3794C25.4472 23.1781 25.7684 23.1781 25.9664 23.3792C26.1646 23.5805 26.1649 23.907 25.9666 24.1082C25.7684 24.3095 25.4473 24.3095 25.2492 24.1081C25.051 23.9071 25.051 23.5806 25.2492 23.3794H25.249Z" fill="#FFBF00"></path><path d="M8.9098 22.7682C9.09548 22.5795 9.39646 22.5794 9.58225 22.7681C9.76793 22.9565 9.76804 23.2623 9.58236 23.4511C9.39669 23.6398 9.09572 23.6398 8.90992 23.4511C8.72425 23.2626 8.72413 22.9568 8.90992 22.7682H8.9098Z" fill="#FFBF00"></path><path d="M16.8059 25.5911C16.9914 25.4025 17.2923 25.4023 17.4781 25.5911C17.6637 25.7797 17.6639 26.0854 17.4783 26.274C17.2925 26.4626 16.9915 26.4627 16.806 26.2741C16.6202 26.0856 16.6202 25.7798 16.806 25.5911H16.8059Z" fill="#FFBF00"></path><path d="M24.6709 22.7013C24.8565 22.5127 25.1576 22.5127 25.3433 22.7012C25.529 22.8899 25.5291 23.1957 25.3435 23.3843C25.1577 23.5731 24.8566 23.5729 24.6711 23.3843C24.4853 23.1957 24.4853 22.8899 24.6709 22.7013Z" fill="#FFBF00"></path><path d="M9.52803 22.0832C9.70126 21.907 9.98199 21.907 10.1553 22.0831C10.3287 22.259 10.3287 22.5442 10.1556 22.7202C9.98222 22.8964 9.70149 22.8964 9.52827 22.7205C9.3548 22.5446 9.3548 22.2592 9.52803 22.0833V22.0832Z" fill="#FFBF00"></path><path d="M16.8245 24.6932C16.9976 24.5172 17.2783 24.5171 17.4515 24.693C17.6248 24.869 17.6249 25.1542 17.4518 25.3302C17.2785 25.5063 16.9976 25.5063 16.8245 25.3304C16.6511 25.1543 16.6511 24.8694 16.8245 24.6932Z" fill="#FFBF00"></path><path d="M24.0929 22.0234C24.266 21.8473 24.5469 21.8474 24.7202 22.0232C24.8934 22.1992 24.8935 22.4846 24.7203 22.6606C24.5472 22.8368 24.2662 22.8365 24.093 22.6608C23.9198 22.4847 23.9196 22.1995 24.0929 22.0236V22.0234Z" fill="#FFBF00"></path><path d="M10.1461 21.398C10.3069 21.2346 10.5675 21.2346 10.7283 21.3978C10.8892 21.561 10.8892 21.8258 10.7285 21.9892C10.5676 22.1527 10.307 22.1527 10.1463 21.9895C9.98536 21.8261 9.98524 21.5614 10.146 21.3979L10.1461 21.398Z" fill="#FFBF00"></path><path d="M16.843 23.7953C17.0037 23.6318 17.2642 23.6317 17.4251 23.7949C17.5859 23.9583 17.586 24.223 17.4254 24.3864C17.2645 24.5497 17.0039 24.5499 16.843 24.3865C16.6822 24.2234 16.6822 23.9586 16.843 23.7953V23.7953Z" fill="#FFBF00"></path><path d="M23.5148 21.3442C23.6754 21.1807 23.9363 21.1807 24.0969 21.3439C24.2578 21.5073 24.258 21.7722 24.0971 21.9355C23.9364 22.099 23.6757 22.0989 23.5149 21.9358C23.3541 21.7724 23.354 21.5076 23.5148 21.3442Z" fill="#FFBF00"></path><path d="M10.7645 20.7143C10.9127 20.5636 11.1533 20.5634 11.3016 20.7142C11.4501 20.8649 11.4501 21.1091 11.3019 21.2599C11.1536 21.4106 10.9132 21.4107 10.7647 21.2602C10.6164 21.1095 10.6163 20.8651 10.7646 20.7143H10.7645Z" fill="#FFBF00"></path><path d="M16.8616 22.8959C17.01 22.7451 17.2504 22.745 17.3988 22.8955C17.5473 23.0462 17.5474 23.2904 17.3991 23.4413C17.2509 23.5921 17.0104 23.5922 16.8619 23.4414C16.7136 23.2909 16.7135 23.0467 16.8617 22.8959H16.8616Z" fill="#FFBF00"></path><path d="M22.9367 20.6661C23.0849 20.5154 23.3255 20.5152 23.4737 20.6659C23.6222 20.8166 23.6224 21.0609 23.4742 21.2118C23.3257 21.3625 23.0854 21.3625 22.9369 21.2119C22.7886 21.0612 22.7885 20.817 22.9368 20.6662L22.9367 20.6661Z" fill="#FFBF00"></path><path d="M11.3826 20.0293C11.5185 19.8912 11.7388 19.8911 11.8747 20.0291C12.0106 20.1669 12.0108 20.3909 11.8749 20.529C11.7392 20.6672 11.5189 20.6673 11.3828 20.5292C11.2468 20.3911 11.2467 20.1674 11.3826 20.0292V20.0293Z" fill="#FFBF00"></path><path d="M16.8804 21.9979C17.0162 21.8597 17.2364 21.8596 17.3724 21.9977C17.5084 22.1356 17.5087 22.3592 17.3728 22.4976C17.2369 22.6356 17.0167 22.6358 16.8807 22.4977C16.7447 22.3597 16.7447 22.136 16.8805 21.9979H16.8804Z" fill="#FFBF00"></path><path d="M22.3584 19.9881C22.4943 19.85 22.7146 19.8498 22.8507 19.9877C22.9865 20.1257 22.9868 20.3495 22.851 20.4877C22.7152 20.6258 22.4947 20.6259 22.3587 20.488C22.2227 20.35 22.2226 20.1263 22.3584 19.9881Z" fill="#FFBF00"></path><path d="M12.0008 19.3442C12.1244 19.2187 12.3244 19.2186 12.4479 19.3438C12.5715 19.4692 12.5717 19.6724 12.4481 19.798C12.3248 19.9235 12.1247 19.9236 12.001 19.7983C11.8775 19.673 11.8773 19.4697 12.0008 19.3441V19.3442Z" fill="#FFBF00"></path><path d="M16.899 21.1001C17.0225 20.9744 17.2223 20.9743 17.3461 21.0996C17.4696 21.225 17.4698 21.4284 17.3464 21.5539C17.223 21.6793 17.0228 21.6796 16.8993 21.5543C16.7757 21.4288 16.7757 21.2256 16.899 21.1001Z" fill="#FFBF00"></path><path d="M21.7803 19.3088C21.9037 19.1833 22.1038 19.1832 22.2275 19.3085C22.3509 19.4337 22.3512 19.6371 22.228 19.7627C22.1045 19.8881 21.9043 19.8882 21.7808 19.7629C21.6572 19.6376 21.657 19.4342 21.7803 19.3087V19.3088Z" fill="#FFBF00"></path><path d="M12.6191 18.6593C12.7299 18.5463 12.9099 18.5462 13.021 18.6588C13.1321 18.7716 13.1323 18.9543 13.0215 19.0672C12.9106 19.18 12.7306 19.1803 12.6195 19.0675C12.5084 18.9549 12.5083 18.7721 12.6192 18.6593H12.6191Z" fill="#FFBF00"></path><path d="M16.9177 20.2006C17.0288 20.0878 17.2085 20.0875 17.3196 20.2002C17.4307 20.3129 17.4311 20.4957 17.32 20.6085C17.2091 20.7214 17.0291 20.7216 16.9181 20.6089C16.8069 20.4962 16.8068 20.3135 16.9178 20.2005L16.9177 20.2006Z" fill="#FFBF00"></path><path d="M21.2022 18.6307C21.3131 18.5179 21.493 18.5178 21.6041 18.6304C21.7152 18.743 21.7155 18.926 21.6046 19.0389C21.4935 19.1517 21.3136 19.1518 21.2025 19.0391C21.0916 18.9265 21.0912 18.7436 21.2021 18.6307H21.2022Z" fill="#FFBF00"></path><path d="M13.2373 17.9742C13.3358 17.8739 13.4955 17.8738 13.5942 17.9739C13.6927 18.0738 13.6931 18.2362 13.5947 18.3365C13.4961 18.4367 13.3364 18.4368 13.2376 18.3369C13.139 18.2369 13.1389 18.0745 13.2373 17.9743V17.9742Z" fill="#FFBF00"></path><path d="M16.9364 19.3027C17.0349 19.2023 17.1946 19.2022 17.2932 19.3022C17.3917 19.4023 17.392 19.5646 17.2936 19.6649C17.1951 19.765 17.0353 19.7651 16.9366 19.6652C16.838 19.5653 16.8379 19.403 16.9364 19.3028V19.3027Z" fill="#FFBF00"></path><path d="M20.6241 17.9529C20.7225 17.8526 20.8824 17.8525 20.981 17.9525C21.0797 18.0526 21.0799 18.2149 20.9815 18.3151C20.8831 18.4154 20.7232 18.4154 20.6246 18.3154C20.5259 18.2154 20.5256 18.053 20.6241 17.9527V17.9529Z" fill="#FFBF00"></path><path d="M16.955 18.4048C17.041 18.3172 17.1806 18.3168 17.2668 18.4041C17.353 18.4916 17.3534 18.6334 17.2673 18.721C17.1813 18.8086 17.0417 18.8088 16.9555 18.7215C16.8691 18.6341 16.8689 18.4923 16.955 18.4048Z" fill="#FFBF00"></path><path d="M8.43584 3.41215C8.22526 3.19809 7.88392 3.19809 7.67323 3.41203C7.46266 3.62598 7.46266 3.97279 7.67323 4.18674C7.88381 4.40068 8.22515 4.40068 8.43584 4.18674C8.64641 3.97279 8.64641 3.6261 8.43584 3.41227V3.41215Z" fill="#FFBF00"></path><path d="M17.5308 0.160461C17.3202 -0.0534869 16.9788 -0.0534869 16.7683 0.160461C16.5577 0.374525 16.5577 0.720983 16.7683 0.93493C16.979 1.14888 17.3201 1.14899 17.5306 0.935047C17.7412 0.721099 17.7412 0.374525 17.5306 0.160461H17.5308Z" fill="#FFBF00"></path><path d="M26.5897 3.4901C26.3792 3.27615 26.0377 3.27627 25.827 3.49033C25.6166 3.70405 25.6165 4.05097 25.827 4.2648C26.0377 4.47887 26.3792 4.47875 26.5896 4.26492C26.8002 4.05097 26.8003 3.70405 26.5897 3.49022V3.4901Z" fill="#FFBF00"></path><path d="M8.29158 4.87092C8.48982 5.0723 8.8108 5.0723 9.00893 4.87092C9.20706 4.66965 9.20718 4.34344 9.00905 4.14205C8.81092 3.94079 8.48982 3.94079 8.29158 4.14194C8.09345 4.3432 8.09345 4.66954 8.29158 4.87092V4.87092Z" fill="#FFBF00"></path><path d="M16.7871 1.83338C16.9853 2.03476 17.3062 2.03487 17.5044 1.83361C17.7026 1.63223 17.7026 1.30601 17.5045 1.10474C17.3063 0.903477 16.9852 0.903361 16.787 1.10463C16.5889 1.30589 16.589 1.63211 16.7871 1.83338Z" fill="#FFBF00"></path><path d="M25.249 4.94322C25.4472 5.14449 25.7684 5.14449 25.9664 4.94334C26.1646 4.74207 26.1649 4.41562 25.9666 4.21435C25.7684 4.01309 25.4473 4.0132 25.2492 4.21459C25.051 4.41562 25.051 4.74207 25.2492 4.94334L25.249 4.94322Z" fill="#FFBF00"></path><path d="M8.9098 5.55503C9.09548 5.74373 9.39646 5.74385 9.58225 5.55514C9.76793 5.36668 9.76804 5.06094 9.58236 4.87212C9.39669 4.68342 9.09572 4.68342 8.90992 4.87212C8.72425 5.06059 8.72413 5.36633 8.90992 5.55503H8.9098Z" fill="#FFBF00"></path><path d="M16.8059 2.732C16.9914 2.92059 17.2923 2.92082 17.4781 2.732C17.6637 2.54342 17.6639 2.23768 17.4783 2.04909C17.2925 1.8605 16.9915 1.86039 16.806 2.04897C16.6202 2.23756 16.6202 2.5433 16.806 2.732H16.8059Z" fill="#FFBF00"></path><path d="M24.6709 5.62192C24.8565 5.8105 25.1576 5.8105 25.3433 5.62203C25.529 5.43333 25.5291 5.12748 25.3435 4.93889C25.1577 4.75007 24.8566 4.7503 24.6711 4.93889C24.4853 5.12748 24.4853 5.43321 24.6709 5.62192V5.62192Z" fill="#FFBF00"></path><path d="M9.52803 6.24074C9.70126 6.41688 9.98199 6.41688 10.1553 6.24074C10.3287 6.06495 10.3287 5.77957 10.1556 5.60355C9.98222 5.42742 9.70149 5.42742 9.52827 5.60344C9.3548 5.77934 9.3548 6.06472 9.52803 6.24063V6.24074Z" fill="#FFBF00"></path><path d="M16.8245 3.63042C16.9976 3.80644 17.2783 3.80655 17.4515 3.63065C17.6248 3.45463 17.6249 3.16948 17.4518 2.99346C17.2785 2.81732 16.9976 2.81732 16.8245 2.99323C16.6511 3.16937 16.6511 3.45428 16.8245 3.63042Z" fill="#FFBF00"></path><path d="M24.0929 6.30035C24.266 6.47649 24.5469 6.47637 24.7202 6.30058C24.8934 6.12444 24.8935 5.83918 24.7203 5.66316C24.5472 5.48702 24.2662 5.48725 24.093 5.66304C23.9198 5.83906 23.9196 6.12433 24.0929 6.30023V6.30035Z" fill="#FFBF00"></path><path d="M10.1461 6.92479C10.3069 7.08825 10.5675 7.08825 10.7283 6.92503C10.8892 6.76169 10.8892 6.49702 10.7285 6.33356C10.5676 6.1701 10.307 6.1701 10.1463 6.33333C9.98536 6.49667 9.98524 6.76145 10.146 6.92491L10.1461 6.92479Z" fill="#FFBF00"></path><path d="M16.843 4.52875C17.0037 4.6922 17.2642 4.6922 17.4251 4.52909C17.5859 4.36575 17.586 4.10108 17.4254 3.93763C17.2645 3.77429 17.0039 3.77417 16.843 3.93751C16.6822 4.10062 16.6822 4.36541 16.843 4.52875V4.52875Z" fill="#FFBF00"></path><path d="M23.5148 6.97882C23.6754 7.14228 23.9363 7.14228 24.0969 6.97905C24.2578 6.81571 24.258 6.55081 24.0971 6.38747C23.9364 6.22401 23.6757 6.22413 23.5149 6.38724C23.3541 6.55058 23.354 6.81537 23.5148 6.97882Z" fill="#FFBF00"></path><path d="M10.7645 7.61035C10.9127 7.76112 11.1533 7.76124 11.3016 7.61058C11.4501 7.45992 11.4501 7.21573 11.3019 7.06495C11.1536 6.91418 10.9132 6.91406 10.7647 7.0646C10.6164 7.21526 10.6163 7.45969 10.7646 7.61035H10.7645Z" fill="#FFBF00"></path><path d="M16.8616 5.42734C17.01 5.57811 17.2504 5.57823 17.3988 5.42769C17.5473 5.27703 17.5474 5.03283 17.3991 4.88194C17.2509 4.73116 17.0104 4.73105 16.8619 4.88182C16.7136 5.03237 16.7135 5.27656 16.8617 5.42734H16.8616Z" fill="#FFBF00"></path><path d="M22.9367 7.65727C23.0849 7.80793 23.3255 7.80816 23.4737 7.6575C23.6222 7.50696 23.6224 7.26253 23.4742 7.11175C23.3257 6.96098 23.0854 6.96098 22.9369 7.11164C22.7886 7.2623 22.7885 7.50649 22.9368 7.65727H22.9367Z" fill="#FFBF00"></path><path d="M11.3826 8.29469C11.5185 8.43279 11.7388 8.4329 11.8747 8.29492C12.0106 8.15706 12.0108 7.93311 11.8749 7.79502C11.7392 7.6568 11.5189 7.65669 11.3828 7.79478C11.2468 7.93276 11.2467 8.1566 11.3826 8.29481V8.29469Z" fill="#FFBF00"></path><path d="M16.8804 6.32592C17.0162 6.46413 17.2364 6.46425 17.3724 6.32615C17.5084 6.18817 17.5087 5.96457 17.3728 5.82624C17.2369 5.68826 17.0167 5.68803 16.8807 5.82613C16.7447 5.9641 16.7447 6.18782 16.8805 6.32592H16.8804Z" fill="#FFBF00"></path><path d="M22.3584 8.33574C22.4943 8.47384 22.7146 8.47395 22.8507 8.33609C22.9865 8.19811 22.9868 7.97428 22.851 7.83607C22.7152 7.69797 22.4947 7.69785 22.3587 7.83583C22.2227 7.97381 22.2226 8.19753 22.3584 8.33574Z" fill="#FFBF00"></path><path d="M12.0008 8.97885C12.1244 9.10438 12.3244 9.10449 12.4479 8.97931C12.5715 8.8539 12.5717 8.65065 12.4481 8.52501C12.3248 8.39948 12.1247 8.39936 12.001 8.52477C11.8775 8.65007 11.8773 8.85343 12.0008 8.97896V8.97885Z" fill="#FFBF00"></path><path d="M16.899 7.22442C17.0225 7.35007 17.2223 7.35018 17.3461 7.22489C17.4696 7.09947 17.4698 6.89611 17.3464 6.77058C17.223 6.64517 17.0228 6.64494 16.8993 6.77023C16.7757 6.89565 16.7757 7.09878 16.899 7.22442Z" fill="#FFBF00"></path><path d="M21.7803 9.01428C21.9037 9.13981 22.1038 9.13992 22.2275 9.01462C22.3509 8.88933 22.3512 8.68597 22.228 8.56032C22.1045 8.43491 21.9043 8.43479 21.7808 8.56009C21.6572 8.68538 21.657 8.88875 21.7803 9.01428Z" fill="#FFBF00"></path><path d="M12.6191 9.66418C12.7299 9.77714 12.9099 9.77726 13.021 9.66464C13.1321 9.55203 13.1323 9.36914 13.0215 9.25629C12.9106 9.14344 12.7306 9.14321 12.6195 9.25583C12.5084 9.36856 12.5083 9.55121 12.6192 9.66418H12.6191Z" fill="#FFBF00"></path><path d="M16.9177 8.12291C17.0288 8.23576 17.2085 8.23599 17.3196 8.12326C17.4307 8.01053 17.4311 7.82776 17.32 7.71491C17.2091 7.60206 17.0291 7.60183 16.9181 7.71444C16.8069 7.82706 16.8068 8.00983 16.9178 8.12279L16.9177 8.12291Z" fill="#FFBF00"></path><path d="M21.2022 9.69276C21.3131 9.80561 21.493 9.80573 21.6041 9.69311C21.7152 9.5805 21.7155 9.3975 21.6046 9.28465C21.4935 9.1718 21.3136 9.17168 21.2025 9.28453C21.0916 9.39715 21.0912 9.58003 21.2021 9.69288L21.2022 9.69276Z" fill="#FFBF00"></path><path d="M13.2373 10.3485C13.3358 10.4488 13.4955 10.4489 13.5942 10.3489C13.6927 10.2489 13.6931 10.0865 13.5947 9.98622C13.4961 9.88606 13.3364 9.88594 13.2376 9.98587C13.139 10.0859 13.1389 10.2482 13.2373 10.3485V10.3485Z" fill="#FFBF00"></path><path d="M16.9364 9.02136C17.0349 9.12165 17.1946 9.12188 17.2932 9.02183C17.3917 8.92178 17.392 8.75948 17.2936 8.6592C17.1951 8.55903 17.0353 8.55891 16.9366 8.65885C16.838 8.7589 16.8379 8.92119 16.9364 9.02136V9.02136Z" fill="#FFBF00"></path><path d="M20.6241 10.3713C20.7225 10.4715 20.8824 10.4715 20.981 10.3716C21.0797 10.2716 21.0799 10.1093 20.9815 10.009C20.8831 9.90869 20.7232 9.90869 20.6246 10.0086C20.5259 10.1087 20.5256 10.271 20.6241 10.3713Z" fill="#FFBF00"></path><path d="M13.8555 11.0341C13.9415 11.1217 14.0811 11.1219 14.1673 11.0344C14.2536 10.947 14.2537 10.8053 14.1679 10.7176C14.0818 10.6301 13.9422 10.6299 13.856 10.7172C13.7698 10.8045 13.7695 10.9463 13.8555 11.0339V11.0341Z" fill="#FFBF00"></path><path d="M16.955 9.91978C17.041 10.0074 17.1806 10.0077 17.2668 9.92036C17.353 9.83287 17.3534 9.69117 17.2673 9.60357C17.1813 9.51596 17.0417 9.51573 16.9555 9.6031C16.8691 9.69047 16.8689 9.83229 16.955 9.91978Z" fill="#FFBF00"></path><path d="M20.046 11.0496C20.1321 11.1372 20.2717 11.1374 20.3579 11.0501C20.4441 10.9627 20.4445 10.8208 20.3584 10.7333C20.2723 10.6457 20.1327 10.6456 20.0464 10.7328C19.9602 10.8203 19.9599 10.962 20.0459 11.0497L20.046 11.0496Z" fill="#FFBF00"></path><path d="M16.9736 10.8183C17.0473 10.8935 17.1665 10.8936 17.2404 10.8189C17.3141 10.7441 17.3145 10.6229 17.2409 10.5478C17.1672 10.4729 17.048 10.4726 16.9741 10.5474C16.9002 10.6221 16.9 10.7433 16.9736 10.8183Z" fill="#FFBF00"></path><path d="M29.4432 14.1643C29.2597 14.027 29.0022 14.0659 28.8677 14.2516C28.7332 14.4373 28.773 14.6988 28.9564 14.8362C29.1399 14.9737 29.3975 14.9347 29.5321 14.7491C29.6667 14.5634 29.6269 14.3018 29.4433 14.1643H29.4432ZM21.8634 14.361C21.7937 14.3085 21.6954 14.3232 21.6439 14.3939C21.5926 14.4644 21.6076 14.5642 21.6774 14.6167C21.747 14.6691 21.8452 14.6545 21.8966 14.5839C21.9482 14.5132 21.933 14.4136 21.8634 14.361V14.361ZM20.9159 14.3856C20.8604 14.3437 20.7822 14.3554 20.7413 14.4115C20.7001 14.4677 20.7121 14.5471 20.7677 14.589C20.8232 14.6309 20.9012 14.6193 20.9423 14.5632C20.9834 14.5069 20.9714 14.4275 20.9159 14.3856ZM27.5484 14.2136C27.3933 14.0974 27.1755 14.1303 27.0617 14.2872C26.9478 14.4441 26.9815 14.6652 27.1367 14.7814C27.2917 14.8975 27.5094 14.8646 27.6231 14.7079C27.7367 14.5509 27.7033 14.3297 27.5483 14.2136H27.5484ZM28.4958 14.1889C28.3266 14.0621 28.0889 14.0982 27.9648 14.2695C27.8405 14.4408 27.8772 14.6821 28.0464 14.8089C28.2158 14.9358 28.4533 14.8999 28.5775 14.7286C28.7017 14.5572 28.665 14.316 28.4958 14.1889V14.1889ZM22.8109 14.3366C22.7269 14.2734 22.6089 14.2911 22.5471 14.3761C22.4853 14.461 22.5033 14.581 22.5874 14.6442C22.6714 14.7073 22.7895 14.6895 22.8513 14.6046C22.9131 14.5196 22.895 14.3996 22.8109 14.3366ZM23.7584 14.312C23.6602 14.2384 23.5221 14.259 23.45 14.3584C23.3779 14.4577 23.3989 14.5979 23.4972 14.6715C23.5954 14.7451 23.7335 14.7245 23.8056 14.6252C23.8778 14.526 23.8569 14.3858 23.7585 14.312H23.7584ZM24.7059 14.2875C24.5935 14.2031 24.4354 14.227 24.3529 14.3407C24.2704 14.4544 24.2947 14.6147 24.407 14.6991C24.5196 14.7835 24.6775 14.7598 24.76 14.646C24.8424 14.5324 24.8184 14.3718 24.7059 14.2875ZM25.6533 14.2629C25.5266 14.1677 25.3489 14.1946 25.256 14.3227C25.1629 14.4509 25.1903 14.6316 25.3169 14.7266C25.4436 14.8215 25.6213 14.7948 25.7144 14.6666C25.8074 14.5384 25.78 14.3577 25.6533 14.2629ZM26.6008 14.2382C26.4601 14.1326 26.2623 14.1625 26.1589 14.305C26.0556 14.4475 26.0861 14.6485 26.2269 14.754C26.3678 14.8595 26.5654 14.8296 26.669 14.6871C26.7723 14.5447 26.7419 14.3437 26.6009 14.2381L26.6008 14.2382ZM30.3908 14.1398C30.1931 13.9918 29.9155 14.034 29.7707 14.2341C29.6259 14.434 29.6687 14.7158 29.8664 14.8639C30.0641 15.0119 30.3415 14.9699 30.4864 14.7699C30.6314 14.5698 30.5887 14.2879 30.3908 14.1398V14.1398ZM31.3383 14.1153C31.1264 13.9567 30.8289 14.0017 30.6735 14.2163C30.5182 14.4307 30.5643 14.7327 30.7762 14.8915C30.988 15.0501 31.2854 15.005 31.4407 14.7906C31.4687 14.7521 31.4901 14.7107 31.5052 14.6679C31.5374 14.765 31.5985 14.8536 31.6861 14.9191C31.9122 15.0882 32.2294 15.0403 32.3953 14.8113C32.4095 14.7918 32.4219 14.7715 32.433 14.7508C32.4701 14.8258 32.5249 14.8932 32.5961 14.9465C32.8364 15.1264 33.1736 15.0751 33.3498 14.8322C33.5259 14.5888 33.4739 14.2463 33.2334 14.0663C32.9931 13.8864 32.6559 13.9376 32.4795 14.1808C32.461 14.2064 32.4451 14.2329 32.4316 14.2604C32.3969 14.1957 32.3482 14.1375 32.2861 14.091C32.0598 13.9217 31.7425 13.9696 31.5769 14.1987C31.5447 14.243 31.5207 14.2908 31.5045 14.3404C31.4734 14.2534 31.4175 14.1745 31.3386 14.1154L31.3383 14.1153Z" fill="#FFBF00"></path><path d="M17.1315 17.2612C18.6532 17.2612 19.8869 16.0276 19.8869 14.5059C19.8869 12.9841 18.6532 11.7505 17.1315 11.7505C15.6097 11.7505 14.3761 12.9841 14.3761 14.5059C14.3761 16.0276 15.6097 17.2612 17.1315 17.2612Z" fill="#000263"></path><path d="M4.69705 14.1643C4.88052 14.027 5.13809 14.0659 5.27258 14.2516C5.40707 14.4373 5.36728 14.6988 5.18393 14.8362C5.00047 14.9737 4.74289 14.9347 4.60829 14.7491C4.47368 14.5634 4.51347 14.3018 4.69705 14.1643V14.1643ZM12.2769 14.361C12.3465 14.3085 12.4449 14.3232 12.4962 14.3939C12.5475 14.4644 12.5325 14.5642 12.4627 14.6167C12.3931 14.6691 12.2948 14.6545 12.2435 14.5839C12.192 14.5132 12.207 14.4136 12.2768 14.361H12.2769ZM13.2244 14.3856C13.2799 14.3437 13.358 14.3554 13.399 14.4115C13.4402 14.4677 13.4282 14.5471 13.3726 14.589C13.3171 14.6309 13.239 14.6193 13.198 14.5632C13.1569 14.5069 13.1689 14.4275 13.2244 14.3856ZM6.59187 14.2136C6.74695 14.0974 6.96473 14.1303 7.07851 14.2872C7.19229 14.4441 7.15867 14.6652 7.00359 14.7814C6.84851 14.8975 6.63084 14.8646 6.51718 14.7079C6.4034 14.5509 6.4369 14.3297 6.59198 14.2136H6.59187ZM5.6444 14.1889C5.81367 14.0621 6.05147 14.0982 6.17549 14.2695C6.29974 14.4408 6.2631 14.6821 6.09382 14.8089C5.92455 14.9358 5.68699 14.8999 5.56274 14.7286C5.4386 14.5572 5.47524 14.316 5.6444 14.1889V14.1889ZM11.3293 14.3366C11.4133 14.2734 11.5314 14.2911 11.5932 14.3761C11.6549 14.461 11.6369 14.581 11.5528 14.6442C11.4688 14.7073 11.3508 14.6895 11.2889 14.6046C11.2272 14.5196 11.2453 14.3996 11.3293 14.3366ZM10.3817 14.312C10.4799 14.2384 10.618 14.259 10.6903 14.3584C10.7624 14.4577 10.7412 14.5979 10.643 14.6715C10.5448 14.7451 10.4067 14.7245 10.3346 14.6252C10.2625 14.526 10.2833 14.3858 10.3817 14.312ZM9.43427 14.2875C9.54665 14.2031 9.70464 14.227 9.78724 14.3407C9.86972 14.4544 9.84541 14.6147 9.73314 14.6991C9.62052 14.7835 9.46265 14.7598 9.38017 14.646C9.29769 14.5324 9.32177 14.3718 9.43427 14.2875ZM8.4868 14.2629C8.61349 14.1677 8.79126 14.1946 8.8841 14.3227C8.97729 14.4509 8.94983 14.6316 8.82314 14.7266C8.69645 14.8215 8.51868 14.7948 8.4256 14.6666C8.33265 14.5384 8.35999 14.3577 8.48668 14.2629H8.4868ZM7.53934 14.2382C7.67987 14.1326 7.87788 14.1625 7.98119 14.305C8.0845 14.4475 8.05402 14.6485 7.91325 14.754C7.77236 14.8595 7.5747 14.8296 7.47128 14.6871C7.36797 14.5447 7.39833 14.3437 7.53934 14.2381V14.2382ZM3.74936 14.1398C3.94702 13.9918 4.2246 14.034 4.36933 14.2341C4.51417 14.434 4.47135 14.7158 4.27369 14.8639C4.07603 15.0119 3.79868 14.9699 3.65372 14.7699C3.50876 14.5698 3.55146 14.2879 3.74936 14.1398ZM2.80177 14.1153C3.01362 13.9567 3.31111 14.0017 3.46653 14.2163C3.62173 14.4307 3.57578 14.7327 3.36381 14.8915C3.15207 15.0501 2.85459 15.005 2.69928 14.7906C2.67135 14.7521 2.64995 14.7107 2.63482 14.6679C2.6026 14.765 2.54152 14.8536 2.45392 14.9191C2.22787 15.0882 1.9105 15.0403 1.74472 14.8113C1.73052 14.7918 1.71807 14.7715 1.70702 14.7508C1.66991 14.8258 1.61511 14.8932 1.54391 14.9465C1.30367 15.1264 0.966404 15.0751 0.790382 14.8322C0.614129 14.5888 0.666249 14.2463 0.906722 14.0663C1.14696 13.8864 1.48423 13.9376 1.6606 14.1808C1.6791 14.2064 1.69504 14.2329 1.70854 14.2604C1.74309 14.1957 1.79183 14.1375 1.85407 14.091C2.08024 13.9217 2.39761 13.9696 2.56328 14.1987C2.5955 14.243 2.61947 14.2908 2.63564 14.3404C2.6667 14.2534 2.72266 14.1745 2.80154 14.1154L2.80177 14.1153Z" fill="#FFBF00"></path></svg>